<svg width="64" height="64" viewBox="0 0 64 64" fill="none" xmlns="http://www.w3.org/2000/svg">
<path fill-rule="evenodd" clip-rule="evenodd" d="M16.0705 0C8.86741 4.91603 3.91127 9.13979 3.24231 17.5507C3.24231 21.9912 5.70927 25.4449 9.09255 27.348C6.85991 29.1799 5.73536 30.2454 3.94717 32.2115C4.82309 33.827 7.34274 34.8085 11.5758 36.4573C11.912 36.5883 12.2589 36.7234 12.6168 36.8634H10.4318C10.1959 38.7975 11.1115 40.1823 12.1555 41.7614C12.6715 42.5419 13.2188 43.3697 13.674 44.3348C14.1137 45.2669 14.4999 46.1065 14.8613 46.8921C16.1398 49.6713 17.1076 51.7753 19.0309 54.9075C19.7998 55.8446 20.9327 56.6563 22.2454 57.5967C22.7051 57.9261 23.1869 58.2713 23.6829 58.6432C24.2688 59.0826 24.9337 59.6583 25.6391 60.269C27.6321 61.9947 29.9481 64 31.7181 64C33.4097 64 35.5766 63.1493 40.1057 60.1233C42.4429 59.5799 44.0208 58.3912 47.4361 54.2731C50.692 52.8408 54.1322 45.815 54.5551 40.9515L56.0353 41.2335C56.0618 34.6668 56.0056 31.1438 54.6961 27.5595C59.3358 24.2364 61.1261 21.9869 60.6168 16.2115C59.8202 12.0522 58.7144 9.17043 56.6497 6.69603C55.5596 5.38967 54.0267 4.32648 52.2966 3.12647C51.356 2.47404 50.357 1.78117 49.3392 0.986784C49.4472 4.71003 49.7203 7.77232 49.9373 10.2053C50.0038 10.9503 50.065 11.6364 50.1146 12.2643C50.1188 12.5259 50.1244 12.7781 50.1298 13.0197C50.1646 14.584 50.1895 15.7041 49.7622 16.0705C49.0791 16.8293 47.4707 16.6787 45.2511 16.2115C43.9733 15.8707 42.9357 15.4363 41.9448 15.0214C40.4761 14.4065 39.1099 13.8345 37.2159 13.674C34.6148 13.4536 33.6682 13.8949 32.8928 14.2565C32.4285 14.4729 32.0256 14.6608 31.3657 14.6608C31.0193 14.5506 30.7081 14.4404 30.4124 14.3356C29.3844 13.9716 28.5441 13.674 27.0661 13.674C24.8671 13.674 23.2376 14.411 21.8019 15.0603C20.2925 15.7429 18.9975 16.3287 17.4802 15.859C15.5797 15.2708 15.0436 14.4297 15.0133 10.9956C15.0133 8.3884 15.2724 6.50689 15.555 4.45526C15.7385 3.12353 15.9318 1.72011 16.0705 0ZM24.0353 11.207C27.6528 10.5653 29.3601 10.4138 31.8591 10.5022C34.7262 10.4937 36.6137 10.6932 40.3877 11.348C40.8337 9.52413 41.5998 8.25815 43.8414 5.56828C43.3847 5.53022 43.1129 5.63605 42.8707 5.73035C42.6645 5.81068 42.4797 5.88264 42.2203 5.85022C42.0501 5.86094 41.887 5.85045 41.7343 5.84063C41.3778 5.8177 41.0785 5.79846 40.8811 6.06167C40.482 6.59376 40.7245 6.98637 40.9242 7.30971C41.042 7.50036 41.1448 7.66692 41.0925 7.82379C40.2258 8.76615 39.8552 8.79156 38.837 8.74009C37.8407 8.50354 37.4065 7.93001 37.6388 6.837C37.6907 6.59283 37.854 6.49339 38.0291 6.38681C38.2617 6.24523 38.5149 6.09105 38.5551 5.56828C38.5822 5.21586 38.4141 4.65198 37.9207 4.51101C36.934 4.37004 36.7225 5.00441 36.7225 5.4978C36.7225 5.67104 36.7921 5.85332 36.8603 6.03209C36.9738 6.32937 37.0836 6.61693 36.8635 6.837C36.2996 7.3304 35.8062 7.54185 34.8899 7.54185C33.724 7.31742 33.2643 6.99031 32.9163 5.9207C34.2299 5.71802 34.8194 5.35683 34.8899 4.65198C34.8899 4.01762 34.6992 3.34515 33.3392 3.24229C33.3305 1.51958 33.0033 0.874181 32.141 0C31.1703 0.90598 31.1355 1.85397 31.0953 2.94646C31.0917 3.04389 31.0881 3.14248 31.0837 3.24229C29.815 3.24229 29.3916 3.96769 29.3921 4.37004C29.3921 5.35683 30.8018 5.9207 31.4362 5.9207C30.6608 7.89427 28.8282 7.96476 27.4185 6.69603C27.3572 6.57326 27.4116 6.41038 27.4815 6.20158C27.572 5.93091 27.6883 5.58307 27.6115 5.14537C27.5223 4.63703 26.9251 4.44053 26.4318 4.51101C25.9384 4.5815 25.6562 5.21384 25.7688 5.70925C25.8765 6.18359 26.1269 6.31497 26.3697 6.44233C26.5238 6.52314 26.6747 6.60234 26.7842 6.76652C26.7937 8.06403 26.5022 8.6696 25.304 8.88106C24.3172 8.88106 23.8155 8.53759 23.1895 7.7533C23.2761 7.61505 23.3732 7.48335 23.4666 7.35685C23.7406 6.98552 23.9816 6.65906 23.8238 6.34361C23.4759 5.84654 23.0578 5.8798 22.6191 5.9147C22.4357 5.92928 22.2487 5.94416 22.0617 5.9207C21.8391 5.89279 21.7042 5.82568 21.5657 5.75674C21.3372 5.64306 21.0987 5.52441 20.4406 5.56828C22.0013 7.48514 22.7845 8.66771 24.0353 11.207ZM13.3216 4.22908C12.8987 9.51542 12.6168 14.2379 14.0265 16.2115C15.0119 17.4237 16.141 18.0441 18.326 18.0441C20.2811 18.0441 21.4987 17.4801 22.7128 16.9176C23.6872 16.4663 24.6594 16.0159 26.0088 15.859C28.6374 15.4581 29.2947 15.9582 29.8498 16.3805C30.1729 16.6264 30.4613 16.8458 31.0837 16.8458C32.0799 16.879 32.7632 16.5993 33.4727 16.309C34.2691 15.983 35.0985 15.6435 36.4405 15.7181C38.3126 15.8221 39.4862 16.3707 40.7269 16.9506C41.3803 17.256 42.0523 17.5702 42.8546 17.8326C44.0081 18.2099 45.4499 18.4232 47.5066 18.5374C50.9561 18.7291 52.1187 17.9498 52.3701 14.5198C52.3701 12.2937 52.1351 10.9133 51.931 9.71427C51.7022 8.36965 51.5121 7.253 51.7357 5.42732C55.0485 7.3304 57.2335 10.8546 58.3613 15.9295C59.0035 18.8194 58.145 21.4107 56.2467 23.4009C54.6229 25.0458 53.6343 25.6909 51.7357 26.3612C53.6716 30.3447 53.9896 33.1162 53.8502 38.5551C53.6438 38.5551 53.4809 38.5288 53.3275 38.5041C53.1143 38.4697 52.9196 38.4384 52.652 38.4846C52.1617 43.6749 51.1819 46.471 48.282 51.0308C47.8591 51.6958 47.448 51.6054 46.8723 51.0308C45.2397 53.9041 43.0627 55.8699 41.5182 57.2645C41.3956 57.3752 41.277 57.4823 41.163 57.5859C40.8106 57.9063 40.0239 58.175 39.8943 57.6564C39.8238 57.3744 39.6028 57.3744 39.5419 57.4449C37.2864 60.0529 33.2687 61.8855 31.2952 61.7445C30.6569 61.6989 30.0154 61.1157 29.3216 60.4758C28.7408 59.94 28.0727 59.4167 27.3744 58.8698C27.249 58.7716 27.1226 58.6726 26.9956 58.5727C26.2573 57.9907 25.5639 57.4813 24.9073 56.999C23.4832 55.9527 22.2327 55.0341 21.0749 53.7797C18.5375 50.9604 17.5168 48.7274 16 44.6872C15.6197 43.6743 15.1119 42.8603 14.6167 42.0667C14.0092 41.0931 13.4208 40.15 13.1101 38.9075H16.4229C16.5911 38.5711 16.7036 38.1902 16.8135 37.8178C16.9799 37.2539 17.1406 36.7097 17.4802 36.37H20.5815C20.609 36.0126 20.479 35.5379 20.356 35.0892C20.2549 34.7203 20.1586 34.369 20.1586 34.1145C20.2291 33.8326 20.0377 33.7653 19.9472 33.8326C18.6599 34.7889 17.1278 35.3833 16.0705 35.3128C13.667 35.0902 12.1612 34.3779 10.4559 33.5712C9.46075 33.1004 8.39762 32.5975 7.04847 32.141C9.50831 29.3395 11.0464 28.1205 14.1674 26.7841C14.1253 26.5737 13.6558 26.4914 13.0892 26.3921C12.7072 26.3252 12.281 26.2505 11.9119 26.1236C8.82168 25.0607 7.10088 23.6534 6.06168 21.2863C4.82245 18.0264 5.07491 15.3656 7.40089 10.9956C9.00715 8.04674 10.7137 5.99119 13.3216 4.22908Z" fill="white"/>
<path d="M18.6079 33.4097C19.781 32.6478 19.8511 30.9102 18.3965 29.1806C18.1021 30.3422 17.1862 32.3642 15.7886 32.5639C15.2952 32.6344 14.7415 32.5548 13.7445 32.0705C16.5999 31.8539 17.4936 31.2394 17.3227 28.9132C14.2506 29.1689 12.7086 29.953 10.2203 32.2819C13.3921 34.326 16.6898 34.6555 18.6079 33.4097Z" fill="#D9D9D9"/>
<path d="M12.6873 18.3965C14.0969 19.9471 16.5606 20.3792 20.8635 20.5815L19.6652 22.7665C16.2795 21.9132 12.6873 22.0617 10.9956 20.5815C10.3163 19.9871 10.1498 17.9031 9.72946 17.0573C9.66899 19.3922 10.1658 21.1773 11.7709 22.2731C15.0132 24.8106 20.2996 22.4846 20.8635 26.3612C14.9427 26.6432 10.4846 24.3172 8.52866 21.3568C5.9207 17.4097 9.30398 9.86785 12.1939 7.68283C11.2776 12.8987 10.9918 16.389 12.6873 18.3965Z" fill="#D9D9D9"/>
<path d="M17.9031 43.2775C21.9207 44.7577 21.5683 47.7181 23.0485 48.8458C22.3878 46.8089 22.2026 45.4626 21.3568 43.63C21.007 42.6856 20.5091 42.0799 20.2996 41.3745C20.0868 40.6583 20.1675 39.8436 20.511 39.0485C21.7617 40.215 22.696 41.022 23.4009 42.9251C24.2467 44.8987 24.0352 48.5639 25.8678 50.9604C27.5595 52.8634 28.8987 52.1938 30.0264 52.4405C32.2819 52.9339 30.7313 55.1894 31.2247 55.4714C31.859 55.5419 33.1752 54.8806 34.044 54.3219C34.6573 53.9276 35.2682 53.4019 35.9471 52.652C36.2291 52.2996 36.5815 52.0881 36.511 51.7357L36.1586 49.6916C35.6038 46.1167 35.5947 44.0529 36.4405 40.5286C36.6042 39.7283 36.7225 39.5315 37.2159 39.5419C37.6119 39.5502 37.6279 39.9973 37.4273 40.5991C36.652 42.9251 36.6903 47.2157 37.6388 51.1718C37.7571 51.6652 37.9912 51.9471 37.9912 52.4405C37.9912 52.9339 37.6821 53.2333 37.6388 53.2863C37.0044 54.0617 36.2047 54.2594 35.8766 54.696C35.3833 55.1894 35.3833 55.6114 34.8899 56.1762C33.6393 57.6079 32.6344 58.3612 31.2247 58.4317C30.3394 58.476 28.7841 57.217 27.0661 55.8238L27.0273 55.7924C25.3361 54.4209 23.4935 52.9267 22.7665 51.8767C20.8634 49.1278 19.1718 47.0837 17.9031 43.2775Z" fill="#D9D9D9"/>
<path d="M34.6784 45.674C35.2423 45.674 35.1718 46.3084 35.1718 47.2952L35.4537 50.0441C35.8062 52.652 33.4802 53.8502 31.1542 54.837L30.5198 52.652C31.859 53.2863 33.3691 52.1586 33.4802 51.5242C33.6319 50.6573 33.9166 50.5291 34.6784 50.6784C34.7489 49.2687 34.3965 48.4934 34.3965 47.1542C34.3965 46.5903 34.2555 45.8855 34.6784 45.674Z" fill="#D9D9D9"/>
<path d="M36.652 36.7929C36.511 37.9207 36.4406 38.978 35.3833 39.4714V38.2026C34.6632 38.7912 34.347 38.7988 34.0441 37.8502C33.5526 38.2182 33.1983 38.1321 32.9163 37.7092C32.2692 37.9545 31.8591 37.9207 31.2952 37.5683V41.4449V45.3216C30.3642 45.2126 29.9912 44.8282 29.2511 44.1938C28.2644 43.348 27.489 43.9119 27.489 43.9119C27.489 43.9119 27.8414 45.9559 29.3921 47.1542C28.5466 47.2573 28.0405 47.263 27.0661 47.1542C25.6592 46.8653 25.356 46.2288 25.7269 44.1938C25.8682 43.4185 26.0491 42.8995 26.3613 42.2203C26.7137 41.4533 27.0645 41.0928 27.63 40.7401C27.6515 39.3678 27.7005 38.6949 28.4053 37.8502C29.2725 36.811 29.8867 36.4138 31.2952 36.1586C35.3833 35.8062 35.2906 37.1454 35.5243 36.652C36.1586 35.3128 36.793 35.6652 36.652 36.7929Z" fill="white"/>
<path fill-rule="evenodd" clip-rule="evenodd" d="M41.7974 53.3568C43.5803 50.4749 44.4977 48.7576 45.6036 45.0396C45.7445 44.4758 46.0954 44.4053 46.3084 44.6872C46.8523 45.4072 47.0476 45.3133 47.2952 44.6872C48.3013 42.0967 48.576 39.9991 48.7049 35.4537C48.573 32.6004 48.3094 31.4958 47.6476 30.0264L47.6486 30.0605C47.7168 32.3275 47.7686 34.0535 47.3657 35.9471L47.3164 36.1794C47.104 37.1829 46.9925 37.7097 46.5904 38.5551C46.294 39.3864 46.0308 39.3663 45.4626 38.837C45.0193 38.3263 44.7246 38.3404 44.1234 38.837L41.0926 41.4449C40.4545 41.9231 40.2142 41.9351 40.2467 40.9515C40.2467 39.7861 40.3734 38.5926 40.4884 37.5092C40.6307 36.1683 40.7551 34.9963 40.5992 34.2555C40.3172 32.9163 39.698 32.2879 38.4846 31.6476C39.4456 33.3574 39.6746 34.3146 39.26 36.0176C38.9351 37.2986 38.837 37.5683 38.2027 37.5683C37.738 37.4574 37.6289 37.1454 37.6388 36.5815C37.6598 35.3904 37.3569 34.9604 36.0177 34.9604L33.3393 35.0308C32.7049 35.0308 32.2689 34.8507 32.141 34.467C32.0705 34.2555 32 33.7621 32.5639 33.6211C32.6529 33.6034 32.7553 33.5945 32.8587 33.5856C33.1651 33.5593 33.4802 33.5322 33.4802 33.2687C33.4802 33.0401 33.3899 32.9816 33.2888 32.9161C33.2341 32.8806 33.1762 32.843 33.1278 32.7753C32.9874 32.4681 33.1469 32.1048 33.3393 31.859C33.6785 31.4257 33.9736 31.1542 34.326 31.2952C34.5846 31.489 34.4764 31.791 34.3582 32.1211C34.3474 32.151 34.3367 32.1811 34.326 32.2115C35.204 32.3745 35.7357 31.859 35.7357 30.6608C35.7239 29.7533 35.545 29.3191 34.8899 28.6872C35.2818 28.5566 35.8249 28.8193 36.4423 29.118C37.1574 29.4639 37.9721 29.858 38.7666 29.7445C38.9075 30.8018 40.1763 30.7313 40.6697 30.2379C41.163 29.7445 41.1939 29.0289 40.4582 27.9119L41.0221 27.8414C40.7394 27.0175 40.3877 26.615 39.26 26.5022C38.5551 26.4317 37.6388 26.6432 37.2864 27.207L38.2027 27.348C38.2647 27.9704 38.1068 28.1468 37.4978 28.3348C37.2724 28.4044 36.9445 28.2682 36.6171 28.1323C36.3516 28.0221 36.0865 27.912 35.8767 27.9119C35.6805 27.8839 35.4843 27.945 35.2437 28.02C34.8794 28.1335 34.4134 28.2787 33.6917 28.1938C32.667 28.0017 32.0315 27.4338 31.4117 26.88L31.4117 26.88L31.4117 26.88L31.4116 26.8799L31.4116 26.8799C31.3493 26.8242 31.2871 26.7687 31.2247 26.7137V31.2952C31.2247 32.9163 27.771 32.4229 25.445 30.9427C24.9323 30.6816 24.5449 30.4212 24.1786 30.1749L24.1786 30.1749C23.5024 29.7203 22.8979 29.3139 21.7093 29.0396C22.3563 31.5544 23.26 32.7753 24.8811 33.6211C26.3793 33.9832 27.0313 33.8706 28.362 33.6408H28.362L28.362 33.6408L28.362 33.6408L28.4758 33.6211C29.755 33.3303 30.0699 33.4214 30.2379 33.8326C27.2219 36.4773 26.5733 38.8377 26.2418 40.044C26.11 40.5237 26.0283 40.8209 25.8679 40.8811C25.493 40.7657 25.4367 40.5318 25.3368 40.1173C25.1927 39.5188 24.9578 38.5435 23.5419 37.0044C21.9208 35.2423 18.6785 28.7577 20.2291 27.4185C21.2414 26.5903 22.8543 27.1137 24.3425 27.5966C25.1341 27.8535 25.8904 28.0989 26.5023 28.1233C26.0693 27.1853 25.2061 26.5427 24.3843 25.9309C23.6007 25.3475 22.8546 24.7922 22.5551 24.0352C21.8366 22.2192 22.1371 20.6021 22.5551 19.9471C23.6737 18.8392 25.2938 19.6366 29.6741 23.1894C29.8771 22.9864 29.4142 22.2312 28.9091 21.4071C28.362 20.5145 27.7653 19.5411 27.9119 19.1013C28.872 18.827 29.436 19.1977 30.0669 19.6122C30.4087 19.8368 30.7701 20.0743 31.2247 20.2291C32.136 20.0889 32.8382 19.7918 33.5219 19.5025L33.5219 19.5025C34.213 19.2101 34.8853 18.9257 35.7357 18.8194C36.9243 18.8194 37.8361 19.1989 38.8558 19.6233C39.4083 19.8533 39.9925 20.0964 40.6697 20.2996C41.6629 20.5609 41.7256 21.0937 41.8068 21.7829C41.835 22.0229 41.8655 22.2819 41.9384 22.5551C42.3232 22.2985 42.6333 21.9579 42.9333 21.6285C43.4575 21.0528 43.9508 20.511 44.7578 20.511C48.7588 20.4393 51.1719 19.6652 52.3701 18.326C53.8357 16.2378 53.857 13.7491 52.8635 7.61234C55.9648 10.7841 57.9384 15.9295 57.2335 19.4537C55.9648 23.4009 53.3956 24.7133 48.7049 26.0793C51.0828 29.6869 51.6145 31.8561 51.7357 35.8767H50.608C50.2597 40.6417 49.7566 42.8321 48.4934 46.1674C47.8106 47.8951 47.3902 48.2912 46.5199 47.1542C44.003 51.0068 42.846 52.6266 41.7974 53.3568ZM25.3261 31.7184C26.3129 32.1384 26.9106 32.3928 26.9956 32.7753H24.3877L22.9075 30.5903C23.8587 31.0939 24.6766 31.442 25.3261 31.7184L25.3261 31.7184ZM39.6124 29.1101C40.2467 28.7929 40.2467 27.7004 39.1895 27.348C39.3418 27.8553 39.1458 28.3973 38.9075 28.5463C38.609 28.7328 38.3105 28.7219 38.0434 28.712C37.8059 28.7033 37.5932 28.6955 37.4274 28.8282C37.7093 29.4626 38.6961 29.5683 39.6124 29.1101ZM37.0749 24.8106C39.4009 23.7533 40.9516 24.1057 42.1498 26.3612C42.2355 25.2234 42.128 24.6368 41.445 23.7533C40.7214 22.9328 40.1762 22.4141 38.9075 22.2731C38.2731 22.3436 38.0911 22.5892 37.9912 23.1894C36.9779 23.1894 36.2448 23.6419 35.5892 24.0466C35.0591 24.3737 34.5798 24.6696 34.0441 24.6696C33.2687 24.6696 33.0452 23.9589 33.3392 22.7665C32.6675 23.3013 32.3323 23.6123 32.2115 24.4581C32.0705 25.4449 32.5639 26.5022 33.6212 26.5022C34.4897 26.3651 35.1171 25.9721 35.8188 25.5326C36.1989 25.2945 36.6009 25.0427 37.0749 24.8106ZM54.8678 18.3986C54.602 19.4651 54.3099 20.6373 52.8635 21.2159C50.608 22.1181 48.8033 22.316 45.8855 22.5551L46.8723 23.9648C49.5323 23.8064 51.2423 23.5419 52.8635 22.5551C54.6961 21.2159 55.3304 19.8062 55.3304 17.0573C55.1077 17.4359 54.9906 17.906 54.8678 18.3986Z" fill="#D9D9D9"/>
<path d="M27.5595 49.0573C28.7062 48.1364 29.6754 47.9599 31.4362 47.9295C31.4852 47.9262 31.3912 46.8653 31.4362 46.861C32.3589 46.7735 32.4153 46.442 32.0705 44.4053C33.0573 45.3216 33.2688 46.1674 33.2688 46.5903C33.2688 47.7578 33.0687 48.8547 31.4362 49.3678C31.3903 49.3823 31.4843 50.4535 31.4362 50.4669C30.2379 50.7489 28.9692 50.3965 27.5595 49.0573Z" fill="#D9D9D9"/>
</svg>
