<svg width="715" height="1424" viewBox="0 0 715 1424" fill="none" xmlns="http://www.w3.org/2000/svg">
<g opacity="0.5" clip-path="url(#clip0_121_73)" filter="url(#filter0_f_121_73)">
<path d="M-308.488 385.754C-405.392 623.361 -508.235 880.423 -363.916 1011.88C-275.81 1105.96 -143.077 1116.34 -52.6853 1206.6C3.2332 1308.29 129.376 1212.77 205.154 1061.43C397.972 755.5 301.119 492.016 153.154 415.367C65.4357 387.973 72.4874 222.488 -11.1411 193.291C-58.1315 175.528 -271.007 298.014 -308.488 385.754Z" fill="#1DA1F2"/>
<path d="M-313.899 383.354C-335.541 436.45 -357.244 489.858 -376.791 543.547C-395.813 595.877 -413.137 648.816 -425.289 701.252C-437.474 752.14 -443.25 801.582 -442.294 846.838C-440.693 895.779 -429.081 936.815 -411.021 969.04C-400.092 988.16 -387.264 1004.58 -372.718 1018.06C-363.683 1026.89 -354.791 1036.05 -345.251 1044.09C-335.306 1052.51 -324.974 1060.22 -314.388 1067.43C-272.248 1095.77 -225.686 1114.79 -180.448 1136.51C-158.009 1147.19 -135.796 1158.49 -114.645 1171.78C-103.928 1178.51 -93.4681 1185.71 -83.4271 1193.73C-73.9893 1201.25 -63.1663 1208.27 -56.1791 1219.91C-35.0397 1255.24 -0.0381692 1268.55 42.0923 1252.13C82.6182 1236.35 124.754 1196.16 160.584 1146.99C170.059 1133.97 179.11 1120.25 187.655 1105.95C192.014 1098.66 196.225 1091.25 200.288 1083.73C204.094 1076.23 208.1 1068.88 212.288 1061.7C229.775 1033.66 245.811 1004.04 260.101 973.388C285.368 918.929 303.371 861.715 312.596 806.556C320.996 753.601 322.085 703.645 315.801 659.669C309.321 613.439 297.289 572.351 280.09 537.718C262.497 501.721 240.766 471.311 215.342 447.109C202.74 434.988 189.283 424.38 175.035 415.334C168.047 410.667 160.678 406.769 152.961 403.659C144.239 400.346 136.206 395.473 128.975 389.109C100.74 363.993 85.4363 319.776 68.4433 278.957C51.4502 238.138 31.1972 198.477 -3.16528 184.484C-24.8554 175.68 -53.7088 186.173 -80.3985 197.336C-116.818 212.641 -153.776 233.11 -190.728 258.444C-222.506 280.083 -256.548 305.54 -286.332 340.844C-296.567 352.991 -306.899 367.168 -313.899 383.354C-319.527 396.387 -308.722 401.229 -303.076 388.156C-302.379 386.584 -301.664 384.973 -300.966 383.401L-299.835 381.202C-299.835 381.202 -300.523 382.344 -299.495 380.436C-297.563 377.077 -295.547 373.802 -293.458 370.624C-288.742 363.774 -283.728 357.427 -278.505 351.696C-265.156 336.757 -251.325 323.484 -237.264 312.118C-202.16 283.306 -166.666 259.35 -131.418 240.678C-99.9711 223.522 -66.8405 207.886 -37.7385 202.905C-32.3758 201.959 -27.158 201.615 -22.1254 201.875C-21.03 201.975 -19.9562 202.065 -18.8964 202.246L-18.5718 202.39L-17.0575 202.773C-13.6638 203.941 -10.2437 205.458 -6.84532 206.966C8.61232 215.295 21.6932 228.399 31.8781 245.755C53.0278 279.834 65.6147 324.919 84.648 361.724C94.0825 381.006 105.935 397.012 119.917 409.35C133.82 420.872 150.76 425.784 165.698 435.21C193.278 452.784 217.759 476.363 238.683 505.503C259.587 534.029 276.337 568.626 288.524 608.452C300.301 646.223 306.131 690.192 305.763 738.461C305.095 810.702 284.78 892.96 248.587 969.967C234.574 999.342 219.032 1027.76 202.203 1054.77C197.961 1061.76 194.413 1069.64 190.442 1076.9C186.471 1084.15 182.398 1091.17 178.195 1098.13C169.918 1111.81 161.181 1124.94 152.058 1137.42C134.652 1161.27 115.777 1182.09 96.2246 1199.03C58.5414 1231.41 19.6087 1246.4 -10.3436 1233.73C-18.1829 1230.42 -25.2741 1225.46 -31.4804 1218.95C-38.9231 1211.26 -44.0967 1200.09 -51.7181 1192.8C-70.2233 1175.48 -90.0482 1160.51 -111.085 1147.99C-153.274 1122.33 -198.955 1104.18 -242.979 1082.48C-265.032 1071.63 -286.692 1059.9 -307.247 1045.9C-327.084 1031.79 -345.887 1015.71 -363.584 997.708C-389.217 972.975 -410.387 939.467 -421.058 894.267C-429.622 857.132 -430.766 813.157 -424.404 765.646C-418.227 718.035 -405.497 668.266 -390.028 619.038C-373.243 566.933 -354.381 515.022 -333.572 463.658C-323.55 438.443 -313.368 413.396 -303.076 388.156C-297.762 375.128 -308.531 370.205 -313.899 383.354Z" fill="#1DA1F2"/>
</g>
<g opacity="0.8" clip-path="url(#clip1_121_73)" filter="url(#filter1_f_121_73)">
<path d="M-134.774 348.685C-120.491 465.368 -103.514 591.134 55.6613 608.979C157.976 625.329 263.276 598.101 365.921 612.408C446.467 639.361 507.358 571.877 509.004 494.24C542.622 327.946 370.637 246.773 229.054 251.43C151.828 261.315 95.69 194.314 20.9201 202.522C-21.5975 206.599 -138.751 305.198 -134.774 348.685Z" fill="#6370F5"/>
<path d="M-139.802 349.015C-136.601 375.087 -133.33 401.295 -128.308 427.106C-123.389 452.256 -116.946 477.246 -106.738 500.817C-97.1303 523.785 -83.1613 544.669 -65.6049 562.312C-46.1847 581.257 -22.0531 594.719 3.73093 603.18C19.193 608.15 35.101 611.604 51.2305 613.495C61.4194 614.849 71.6188 616.365 81.9006 617.289C92.6303 618.265 103.397 618.875 114.166 619.221C156.911 620.467 199.568 616.988 242.215 614.884C263.335 613.805 284.514 613.026 305.62 613.282C316.315 613.411 326.985 613.784 337.642 614.583C347.65 615.323 358.532 615.54 368.198 618.486C397.489 627.445 429.189 624.441 455.284 608.016C480.389 592.221 497.648 566.408 506.753 538.54C509.153 531.164 510.969 523.61 512.183 515.947C512.802 512.039 513.266 508.12 513.575 504.192C513.698 500.334 514.026 496.487 514.558 492.665C517.496 477.465 518.739 461.986 518.264 446.511C517.327 419.047 509.813 392.208 496.356 368.253C483.086 345.363 465.345 325.382 444.191 309.502C422.051 292.778 397.579 279.395 371.557 269.78C344.728 259.72 316.813 252.841 288.384 249.286C274.246 247.475 260.017 246.462 245.765 246.253C238.689 246.059 231.607 246.26 224.553 246.853C216.656 247.603 208.704 247.575 200.812 246.769C169.895 243.516 141.758 229.669 113.595 217.563C85.4309 205.457 55.2061 194.578 23.7414 197.163C3.89096 198.806 -14.2594 209.758 -30.5069 220.464C-52.6507 235.102 -73.2857 251.906 -92.1075 270.629C-108.349 286.672 -124.902 304.757 -134.538 325.725C-137.844 332.936 -140.469 340.972 -139.802 349.015C-139.257 355.489 -129.198 354.851 -129.745 348.357C-129.796 347.572 -129.849 346.767 -129.9 345.982L-129.853 344.846C-129.853 344.846 -129.954 345.459 -129.878 344.464C-129.65 342.682 -129.328 340.913 -128.912 339.165C-127.855 335.348 -126.382 331.658 -124.521 328.163C-119.874 319.114 -114.238 310.609 -107.718 302.804C-91.6011 283.143 -73.3815 265.308 -53.3849 249.617C-35.7295 235.422 -16.2226 221.43 4.16721 212.595C7.9141 210.956 11.7739 209.589 15.7167 208.504C16.5912 208.285 17.4455 208.067 18.3227 207.888L18.6244 207.869L19.9239 207.662C22.9519 207.323 26.13 207.115 29.2879 206.908C44.1984 206.548 59.0674 208.635 73.3048 213.084C102.139 221.548 128.522 236.378 156.752 246.418C171.132 251.804 186.141 255.326 201.415 256.898C216.325 258.166 231.098 256.108 246.019 256.304C273.631 256.734 301.108 260.266 327.933 266.833C354.516 273.162 380.181 282.869 404.303 295.717C427.346 307.851 448.15 323.835 465.815 342.98C492.164 371.66 507.221 408.932 508.192 447.878C508.404 462.783 507.091 477.67 504.272 492.307C503.63 496.069 503.848 500.017 503.511 503.819C503.174 507.622 502.671 511.354 502.047 515.094C500.805 522.446 499.01 529.693 496.678 536.774C492.241 550.297 485.559 562.974 476.912 574.275C460.15 595.952 435.969 611.059 408.37 613.128C401.144 613.668 393.881 613.383 386.72 612.28C378.172 611 370.065 607.811 361.531 606.732C340.945 604.258 320.23 603.028 299.497 603.049C257.711 602.873 216.052 606.488 174.336 608.309C153.448 609.231 132.532 609.71 111.621 609.037C91.2124 608.147 70.8614 606.233 50.6444 603.304C21.858 599.588 -6.7796 591.354 -31.7404 576.026C-52.0922 563.385 -69.3168 546.293 -82.1195 526.033C-95.1007 505.777 -103.876 483.123 -110.356 460.036C-116.901 435.502 -121.786 410.555 -124.979 385.364C-126.695 373.043 -128.226 360.751 -129.745 348.357C-130.527 341.959 -140.588 342.557 -139.802 349.015Z" fill="#6370F5"/>
</g>
<defs>
<filter id="filter0_f_121_73" x="-752.879" y="-62.8791" width="1427.02" height="1538.71" filterUnits="userSpaceOnUse" color-interpolation-filters="sRGB">
<feFlood flood-opacity="0" result="BackgroundImageFix"/>
<feBlend mode="normal" in="SourceGraphic" in2="BackgroundImageFix" result="shape"/>
<feGaussianBlur stdDeviation="82.4395" result="effect1_foregroundBlur_121_73"/>
</filter>
<filter id="filter1_f_121_73" x="-345.131" y="-30.1309" width="1070.56" height="883.868" filterUnits="userSpaceOnUse" color-interpolation-filters="sRGB">
<feFlood flood-opacity="0" result="BackgroundImageFix"/>
<feBlend mode="normal" in="SourceGraphic" in2="BackgroundImageFix" result="shape"/>
<feGaussianBlur stdDeviation="98.0654" result="effect1_foregroundBlur_121_73"/>
</filter>
<clipPath id="clip0_121_73">
<rect width="763.975" height="983.637" fill="white" transform="translate(-189.061 102) rotate(23.9272)"/>
</clipPath>
<clipPath id="clip1_121_73">
<rect width="650.294" height="450.1" fill="white" transform="translate(-149 208.467) rotate(-3.74436)"/>
</clipPath>
</defs>
</svg>
