<svg width="1043" height="555" viewBox="0 0 1043 555" fill="none" xmlns="http://www.w3.org/2000/svg">
<g opacity="0.3" clip-path="url(#clip0_121_72)" filter="url(#filter0_f_121_72)">
<path d="M248.285 85.1897C298.556 205.08 354.426 333.826 529.195 304.975C643 291.625 746.885 230.996 860.427 215.371C954.251 219.848 998.773 129.725 977.19 46.6034C962.987 -140.484 755.549 -175.181 606.266 -127.671C527.048 -93.9385 447.163 -148.373 370.055 -117.164C326.029 -100.046 230.982 40.1026 248.285 85.1897Z" fill="#E1306C"/>
<path d="M243.033 87.0516C254.276 113.837 265.635 140.747 278.737 166.707C291.531 191.996 305.9 216.655 323.849 238.673C340.977 260.229 362.121 278.257 386.108 291.757C412.471 306.083 442.2 313.156 472.184 314.412C490.134 315.054 508.103 313.949 525.837 311.113C537.088 309.492 548.399 308.04 559.619 305.933C571.332 303.747 582.973 301.159 594.539 298.291C640.405 286.769 684.759 270.245 729.515 255.188C751.668 247.692 773.974 240.497 796.514 234.426C807.934 231.349 819.402 228.539 830.985 226.185C841.858 223.965 853.505 220.926 864.678 221.156C898.545 221.887 931.379 209.161 954.214 183.837C976.186 159.482 986.795 126.822 988.109 94.4271C988.446 85.855 988.108 77.2694 987.097 68.7498C986.582 64.4038 985.898 60.0938 985.045 55.82C984.017 51.6781 983.209 47.4844 982.627 43.2568C981.185 26.1971 977.856 9.34934 972.699 -6.97705C963.447 -35.9251 947.384 -62.2304 925.861 -83.6806C904.859 -104.054 879.972 -119.987 852.686 -130.529C824.095 -141.673 794.028 -148.56 763.444 -150.973C731.867 -153.616 700.09 -152.546 668.765 -147.785C653.174 -145.463 637.726 -142.264 622.495 -138.203C614.906 -136.282 607.429 -133.941 600.1 -131.189C591.921 -128.017 583.45 -125.657 574.808 -124.143C540.926 -118.312 506.819 -124.592 473.207 -129.011C439.594 -133.43 404.157 -135.924 371.447 -123.716C350.814 -116.001 334.789 -98.8897 320.715 -82.6118C301.548 -60.3778 284.637 -36.2914 270.233 -10.7078C257.769 11.2481 245.589 35.4706 241.635 60.683C240.284 69.3511 239.905 78.6926 243.033 87.0516C245.559 93.7779 256.072 90.0756 253.539 83.3283C253.248 82.5082 252.95 81.6671 252.66 80.847L252.368 79.6248C252.368 79.6248 252.445 80.3077 252.227 79.2252C251.934 77.2599 251.745 75.2803 251.662 73.295C251.64 68.915 252.098 64.5459 253.028 60.2663C255.255 49.2393 258.697 38.4938 263.29 28.2267C274.533 2.45839 288.563 -21.9992 305.129 -44.7087C319.653 -65.1226 336.208 -85.8776 355.253 -101.408C358.748 -104.279 362.445 -106.894 366.315 -109.234C367.18 -109.73 368.023 -110.219 368.903 -110.672L369.218 -110.784L370.539 -111.394C373.66 -112.666 376.98 -113.843 380.279 -115.012C396.039 -119.876 412.491 -122.124 428.981 -121.668C462.213 -121.327 494.748 -113.473 527.811 -111.274C544.734 -109.863 561.767 -110.626 578.494 -113.544C594.743 -116.675 609.847 -123.306 625.786 -127.582C655.302 -135.424 685.607 -139.924 716.131 -140.997C746.324 -142.251 776.556 -139.634 806.09 -133.21C834.262 -127.223 861.207 -116.464 885.762 -101.398C922.424 -78.7947 949.652 -43.6527 962.391 -2.49544C967.097 13.3037 970.173 29.5426 971.573 45.9673C972.02 50.164 973.438 54.3004 974.223 58.4485C975.007 62.5967 975.593 66.7203 976.054 70.8886C976.941 79.0858 977.209 87.338 976.856 95.575C976.198 111.301 972.897 126.802 967.091 141.427C955.767 169.535 934.573 192.881 905.821 203.379C898.293 206.125 890.478 208.006 882.525 208.984C873.043 210.191 863.456 209.233 854.049 210.65C831.397 214.204 808.98 219.122 786.921 225.376C742.396 237.747 699.146 254.117 655.296 268.592C633.343 275.852 611.227 282.649 588.769 288.217C566.781 293.404 544.547 297.484 522.15 300.443C490.397 305.14 457.444 304.985 426.272 296.174C400.812 288.838 377.343 275.824 357.628 258.11C337.724 240.454 321.577 218.981 307.741 196.358C293.401 172.214 280.703 147.132 269.734 121.282C264.205 108.685 258.88 96.0628 253.539 83.3283C250.784 76.7545 240.255 80.4147 243.033 87.0516Z" fill="#E1306C"/>
</g>
<g opacity="0.3" clip-path="url(#clip1_121_72)" filter="url(#filter1_f_121_72)">
<path d="M794.055 -22.6028C809.85 106.437 828.625 245.521 1004.66 265.256C1117.81 283.338 1234.26 253.226 1347.77 269.048C1436.85 298.856 1504.19 224.225 1506.01 138.367C1543.19 -45.5388 1352.99 -135.308 1196.41 -130.158C1111.01 -119.226 1048.93 -193.323 966.237 -184.245C919.217 -179.737 789.657 -70.6956 794.055 -22.6028Z" fill="#FFDC80"/>
<path d="M788.495 -22.2385C792.035 6.59398 795.652 35.578 801.206 64.1222C806.645 91.9361 813.771 119.573 825.06 145.64C835.685 171.04 851.133 194.136 870.549 213.647C892.026 234.598 918.713 249.485 947.228 258.842C964.327 264.339 981.92 268.159 999.757 270.25C1011.03 271.748 1022.3 273.424 1033.68 274.446C1045.54 275.526 1057.45 276.2 1069.36 276.583C1116.63 277.96 1163.8 274.113 1210.97 271.787C1234.32 270.593 1257.75 269.731 1281.09 270.015C1292.91 270.157 1304.71 270.57 1316.5 271.453C1327.57 272.271 1339.6 272.512 1350.29 275.77C1382.69 285.678 1417.74 282.355 1446.6 264.191C1474.37 246.724 1493.45 218.177 1503.52 187.358C1506.17 179.2 1508.18 170.846 1509.53 162.372C1510.21 158.05 1510.72 153.716 1511.06 149.371C1511.2 145.106 1511.56 140.851 1512.15 136.624C1515.4 119.814 1516.78 102.696 1516.25 85.5826C1515.21 55.2095 1506.9 25.5288 1492.02 -0.963424C1477.35 -26.2778 1457.73 -48.3748 1434.33 -65.936C1409.85 -84.4307 1382.78 -99.2311 1354.01 -109.865C1324.34 -120.99 1293.47 -128.597 1262.03 -132.529C1246.39 -134.532 1230.65 -135.652 1214.89 -135.883C1207.07 -136.097 1199.24 -135.876 1191.44 -135.22C1182.7 -134.39 1173.91 -134.421 1165.18 -135.313C1130.99 -138.91 1099.87 -154.223 1068.73 -167.611C1037.58 -180.999 1004.15 -193.031 969.357 -190.172C947.405 -188.355 927.332 -176.243 909.364 -164.403C884.875 -148.215 862.055 -129.632 841.24 -108.926C823.278 -91.1837 804.973 -71.1834 794.315 -47.9947C790.66 -40.02 787.756 -31.133 788.495 -22.2385C789.097 -15.079 800.221 -15.7846 799.617 -22.9664C799.56 -23.8346 799.502 -24.7251 799.445 -25.5933L799.497 -26.8487C799.497 -26.8487 799.385 -26.1707 799.469 -27.2717C799.721 -29.2427 800.078 -31.1989 800.538 -33.1321C801.707 -37.3533 803.335 -41.4334 805.393 -45.2991C810.533 -55.3059 816.766 -64.7115 823.976 -73.3438C841.8 -95.0864 861.949 -114.81 884.063 -132.163C903.588 -147.861 925.161 -163.335 947.71 -173.105C951.854 -174.918 956.122 -176.43 960.483 -177.63C961.45 -177.872 962.395 -178.113 963.365 -178.311L963.698 -178.333L965.135 -178.561C968.484 -178.936 971.999 -179.166 975.491 -179.395C991.981 -179.793 1008.42 -177.485 1024.17 -172.565C1056.06 -163.205 1085.23 -146.804 1116.45 -135.701C1132.36 -129.744 1148.96 -125.849 1165.85 -124.111C1182.34 -122.708 1198.67 -124.985 1215.17 -124.768C1245.71 -124.292 1276.1 -120.387 1305.76 -113.124C1335.16 -106.124 1363.54 -95.3892 1390.22 -81.1807C1415.7 -67.7619 1438.71 -50.085 1458.25 -28.9127C1487.39 2.8044 1504.04 44.0237 1505.11 87.094C1505.35 103.577 1503.89 120.041 1500.78 136.228C1500.07 140.388 1500.31 144.754 1499.93 148.959C1499.56 153.165 1499.01 157.292 1498.32 161.429C1496.94 169.559 1494.96 177.573 1492.38 185.404C1487.47 200.359 1480.08 214.379 1470.52 226.876C1451.98 250.849 1425.24 267.556 1394.72 269.844C1386.73 270.441 1378.7 270.127 1370.78 268.907C1361.32 267.491 1352.36 263.964 1342.92 262.771C1320.15 260.035 1297.24 258.675 1274.32 258.698C1228.1 258.503 1182.03 262.502 1135.9 264.515C1112.8 265.535 1089.67 266.065 1066.54 265.32C1043.97 264.336 1021.47 262.219 999.109 258.98C967.274 254.87 935.604 245.764 908 228.813C885.493 214.834 866.444 195.931 852.286 173.526C837.93 151.125 828.225 126.072 821.059 100.539C813.821 73.4074 808.418 45.8184 804.887 17.9599C802.99 4.33441 801.296 -9.25964 799.617 -22.9664C798.752 -30.0417 787.625 -29.3806 788.495 -22.2385Z" fill="#FFDC80"/>
</g>
<defs>
<filter id="filter0_f_121_72" x="-48.6889" y="-539.689" width="1323.51" height="1188.79" filterUnits="userSpaceOnUse" color-interpolation-filters="sRGB">
<feFlood flood-opacity="0" result="BackgroundImageFix"/>
<feBlend mode="normal" in="SourceGraphic" in2="BackgroundImageFix" result="shape"/>
<feGaussianBlur stdDeviation="119.844" result="effect1_foregroundBlur_121_72"/>
</filter>
<filter id="filter1_f_121_72" x="538.633" y="-464.324" width="1229.51" height="1023.05" filterUnits="userSpaceOnUse" color-interpolation-filters="sRGB">
<feFlood flood-opacity="0" result="BackgroundImageFix"/>
<feBlend mode="normal" in="SourceGraphic" in2="BackgroundImageFix" result="shape"/>
<feGaussianBlur stdDeviation="119.844" result="effect1_foregroundBlur_121_72"/>
</filter>
<clipPath id="clip0_121_72">
<rect width="719.161" height="497.766" fill="white" transform="translate(191 -59.7649) rotate(-19.5147)"/>
</clipPath>
<clipPath id="clip1_121_72">
<rect width="719.161" height="497.766" fill="white" transform="translate(778.322 -177.67) rotate(-3.74436)"/>
</clipPath>
</defs>
</svg>
