<svg width="1440" height="1626" viewBox="0 0 1440 1626" fill="none" xmlns="http://www.w3.org/2000/svg">
<g opacity="0.8" clip-path="url(#clip0_1_167)" filter="url(#filter0_f_1_167)">
<path d="M645.285 85.1897C695.556 205.08 751.426 333.826 926.195 304.975C1040 291.625 1143.88 230.996 1257.43 215.371C1351.25 219.848 1395.77 129.725 1374.19 46.6034C1359.99 -140.484 1152.55 -175.181 1003.27 -127.671C924.048 -93.9385 844.163 -148.373 767.055 -117.164C723.029 -100.046 627.982 40.1026 645.285 85.1897Z" fill="#E1306C"/>
<path d="M640.033 87.0516C651.276 113.837 662.635 140.747 675.737 166.707C688.531 191.996 702.9 216.655 720.849 238.673C737.977 260.229 759.121 278.257 783.108 291.757C809.471 306.083 839.2 313.156 869.184 314.412C887.134 315.054 905.103 313.949 922.837 311.113C934.088 309.492 945.399 308.04 956.619 305.933C968.332 303.747 979.973 301.159 991.539 298.291C1037.41 286.769 1081.76 270.245 1126.51 255.188C1148.67 247.692 1170.97 240.497 1193.51 234.426C1204.93 231.349 1216.4 228.539 1227.98 226.185C1238.86 223.965 1250.5 220.926 1261.68 221.156C1295.54 221.887 1328.38 209.161 1351.21 183.837C1373.19 159.482 1383.8 126.822 1385.11 94.4271C1385.45 85.855 1385.11 77.2694 1384.1 68.7498C1383.58 64.4038 1382.9 60.0938 1382.05 55.82C1381.02 51.6781 1380.21 47.4844 1379.63 43.2568C1378.19 26.1971 1374.86 9.34934 1369.7 -6.97705C1360.45 -35.9251 1344.38 -62.2304 1322.86 -83.6806C1301.86 -104.054 1276.97 -119.987 1249.69 -130.529C1221.1 -141.673 1191.03 -148.56 1160.44 -150.973C1128.87 -153.616 1097.09 -152.546 1065.77 -147.785C1050.17 -145.463 1034.73 -142.264 1019.49 -138.203C1011.91 -136.282 1004.43 -133.941 997.1 -131.189C988.921 -128.017 980.45 -125.657 971.808 -124.143C937.926 -118.312 903.819 -124.592 870.207 -129.011C836.594 -133.43 801.157 -135.924 768.447 -123.716C747.814 -116.001 731.789 -98.8897 717.715 -82.6118C698.548 -60.3778 681.637 -36.2914 667.233 -10.7078C654.769 11.2481 642.589 35.4706 638.635 60.683C637.284 69.3511 636.905 78.6926 640.033 87.0516C642.559 93.7779 653.072 90.0756 650.539 83.3283C650.248 82.5082 649.95 81.6671 649.66 80.847L649.368 79.6248C649.368 79.6248 649.445 80.3077 649.227 79.2252C648.934 77.2599 648.745 75.2803 648.662 73.295C648.64 68.915 649.098 64.5459 650.028 60.2663C652.255 49.2393 655.697 38.4938 660.29 28.2267C671.533 2.45839 685.563 -21.9992 702.129 -44.7087C716.653 -65.1226 733.208 -85.8776 752.253 -101.408C755.748 -104.279 759.445 -106.894 763.315 -109.234C764.18 -109.73 765.023 -110.219 765.903 -110.672L766.218 -110.784L767.539 -111.394C770.66 -112.666 773.98 -113.843 777.279 -115.012C793.039 -119.876 809.491 -122.124 825.981 -121.668C859.213 -121.327 891.748 -113.473 924.811 -111.274C941.734 -109.863 958.767 -110.626 975.494 -113.544C991.743 -116.675 1006.85 -123.306 1022.79 -127.582C1052.3 -135.424 1082.61 -139.924 1113.13 -140.997C1143.32 -142.251 1173.56 -139.634 1203.09 -133.21C1231.26 -127.223 1258.21 -116.464 1282.76 -101.398C1319.42 -78.7947 1346.65 -43.6527 1359.39 -2.49544C1364.1 13.3037 1367.17 29.5426 1368.57 45.9673C1369.02 50.164 1370.44 54.3004 1371.22 58.4485C1372.01 62.5967 1372.59 66.7203 1373.05 70.8886C1373.94 79.0858 1374.21 87.338 1373.86 95.575C1373.2 111.301 1369.9 126.802 1364.09 141.427C1352.77 169.535 1331.57 192.881 1302.82 203.379C1295.29 206.125 1287.48 208.006 1279.52 208.984C1270.04 210.191 1260.46 209.233 1251.05 210.65C1228.4 214.204 1205.98 219.122 1183.92 225.376C1139.4 237.747 1096.15 254.117 1052.3 268.592C1030.34 275.852 1008.23 282.649 985.769 288.217C963.781 293.404 941.547 297.484 919.15 300.443C887.397 305.14 854.444 304.985 823.272 296.174C797.812 288.838 774.343 275.824 754.628 258.11C734.724 240.454 718.577 218.981 704.741 196.358C690.401 172.214 677.703 147.132 666.734 121.282C661.205 108.685 655.88 96.0628 650.539 83.3283C647.784 76.7545 637.255 80.4147 640.033 87.0516Z" fill="#E1306C"/>
</g>
<g opacity="0.8" clip-path="url(#clip1_1_167)" filter="url(#filter1_f_1_167)">
<path d="M1191.06 -22.6028C1206.85 106.437 1225.63 245.521 1401.66 265.256C1514.81 283.338 1631.26 253.226 1744.77 269.048C1833.85 298.856 1901.19 224.225 1903.01 138.367C1940.19 -45.5388 1749.99 -135.308 1593.41 -130.158C1508.01 -119.226 1445.93 -193.323 1363.24 -184.245C1316.22 -179.737 1186.66 -70.6956 1191.06 -22.6028Z" fill="#FFDC80"/>
<path d="M1185.49 -22.2385C1189.03 6.59398 1192.65 35.578 1198.21 64.1222C1203.65 91.9361 1210.77 119.573 1222.06 145.64C1232.69 171.04 1248.13 194.136 1267.55 213.647C1289.03 234.598 1315.71 249.485 1344.23 258.842C1361.33 264.339 1378.92 268.159 1396.76 270.25C1408.03 271.748 1419.3 273.424 1430.68 274.446C1442.54 275.526 1454.45 276.2 1466.36 276.583C1513.63 277.96 1560.8 274.113 1607.97 271.787C1631.32 270.593 1654.75 269.731 1678.09 270.015C1689.91 270.157 1701.71 270.57 1713.5 271.453C1724.57 272.271 1736.6 272.512 1747.29 275.77C1779.69 285.678 1814.74 282.355 1843.6 264.191C1871.37 246.724 1890.45 218.177 1900.52 187.358C1903.17 179.2 1905.18 170.846 1906.53 162.372C1907.21 158.05 1907.72 153.716 1908.06 149.371C1908.2 145.106 1908.56 140.851 1909.15 136.624C1912.4 119.814 1913.78 102.696 1913.25 85.5826C1912.21 55.2095 1903.9 25.5288 1889.02 -0.963424C1874.35 -26.2778 1854.73 -48.3748 1831.33 -65.936C1806.85 -84.4307 1779.78 -99.2311 1751.01 -109.865C1721.34 -120.99 1690.47 -128.597 1659.03 -132.529C1643.39 -134.532 1627.65 -135.652 1611.89 -135.883C1604.07 -136.097 1596.24 -135.876 1588.44 -135.22C1579.7 -134.39 1570.91 -134.421 1562.18 -135.313C1527.99 -138.91 1496.87 -154.223 1465.73 -167.611C1434.58 -180.999 1401.15 -193.031 1366.36 -190.172C1344.4 -188.355 1324.33 -176.243 1306.36 -164.403C1281.88 -148.215 1259.05 -129.632 1238.24 -108.926C1220.28 -91.1837 1201.97 -71.1834 1191.32 -47.9947C1187.66 -40.02 1184.76 -31.133 1185.49 -22.2385C1186.1 -15.079 1197.22 -15.7846 1196.62 -22.9664C1196.56 -23.8346 1196.5 -24.7251 1196.45 -25.5933L1196.5 -26.8487C1196.5 -26.8487 1196.38 -26.1707 1196.47 -27.2717C1196.72 -29.2427 1197.08 -31.1989 1197.54 -33.1321C1198.71 -37.3533 1200.34 -41.4334 1202.39 -45.2991C1207.53 -55.3059 1213.77 -64.7115 1220.98 -73.3438C1238.8 -95.0864 1258.95 -114.81 1281.06 -132.163C1300.59 -147.861 1322.16 -163.335 1344.71 -173.105C1348.85 -174.918 1353.12 -176.43 1357.48 -177.63C1358.45 -177.872 1359.39 -178.113 1360.36 -178.311L1360.7 -178.333L1362.14 -178.561C1365.48 -178.936 1369 -179.166 1372.49 -179.395C1388.98 -179.793 1405.42 -177.485 1421.17 -172.565C1453.06 -163.205 1482.23 -146.804 1513.45 -135.701C1529.36 -129.744 1545.96 -125.849 1562.85 -124.111C1579.34 -122.708 1595.67 -124.985 1612.17 -124.768C1642.71 -124.292 1673.1 -120.387 1702.76 -113.124C1732.16 -106.124 1760.54 -95.3892 1787.22 -81.1807C1812.7 -67.7619 1835.71 -50.085 1855.25 -28.9127C1884.39 2.8044 1901.04 44.0237 1902.11 87.094C1902.35 103.577 1900.89 120.041 1897.78 136.228C1897.07 140.388 1897.31 144.754 1896.93 148.959C1896.56 153.165 1896.01 157.292 1895.32 161.429C1893.94 169.559 1891.96 177.573 1889.38 185.404C1884.47 200.359 1877.08 214.379 1867.52 226.876C1848.98 250.849 1822.24 267.556 1791.72 269.844C1783.73 270.441 1775.7 270.127 1767.78 268.907C1758.32 267.491 1749.36 263.964 1739.92 262.771C1717.15 260.035 1694.24 258.675 1671.32 258.698C1625.1 258.503 1579.03 262.502 1532.9 264.515C1509.8 265.535 1486.67 266.065 1463.54 265.32C1440.97 264.336 1418.47 262.219 1396.11 258.98C1364.27 254.87 1332.6 245.764 1305 228.813C1282.49 214.834 1263.44 195.931 1249.29 173.526C1234.93 151.125 1225.23 126.072 1218.06 100.539C1210.82 73.4074 1205.42 45.8184 1201.89 17.9599C1199.99 4.33441 1198.3 -9.25964 1196.62 -22.9664C1195.75 -30.0417 1184.63 -29.3806 1185.49 -22.2385Z" fill="#FFDC80"/>
</g>
<g opacity="0.5" clip-path="url(#clip2_1_167)" filter="url(#filter2_f_1_167)">
<path d="M-308.488 587.754C-405.392 825.361 -508.235 1082.42 -363.916 1213.88C-275.81 1307.96 -143.077 1318.34 -52.6853 1408.6C3.2332 1510.29 129.376 1414.77 205.154 1263.43C397.972 957.5 301.119 694.016 153.154 617.367C65.4357 589.973 72.4874 424.488 -11.1411 395.291C-58.1315 377.528 -271.007 500.014 -308.488 587.754Z" fill="#1DA1F2"/>
<path d="M-313.899 585.354C-335.541 638.45 -357.244 691.858 -376.791 745.547C-395.813 797.877 -413.137 850.816 -425.289 903.252C-437.474 954.14 -443.25 1003.58 -442.294 1048.84C-440.693 1097.78 -429.081 1138.81 -411.021 1171.04C-400.092 1190.16 -387.264 1206.58 -372.718 1220.06C-363.683 1228.89 -354.791 1238.05 -345.251 1246.09C-335.306 1254.51 -324.974 1262.22 -314.388 1269.43C-272.248 1297.77 -225.686 1316.79 -180.448 1338.51C-158.009 1349.19 -135.796 1360.49 -114.645 1373.78C-103.928 1380.51 -93.4681 1387.71 -83.4271 1395.73C-73.9893 1403.25 -63.1663 1410.27 -56.1791 1421.91C-35.0397 1457.24 -0.0381692 1470.55 42.0923 1454.13C82.6182 1438.35 124.754 1398.16 160.584 1348.99C170.059 1335.97 179.11 1322.25 187.655 1307.95C192.014 1300.66 196.225 1293.25 200.288 1285.73C204.094 1278.23 208.1 1270.88 212.288 1263.7C229.775 1235.66 245.811 1206.04 260.101 1175.39C285.368 1120.93 303.371 1063.72 312.596 1008.56C320.996 955.601 322.085 905.645 315.801 861.669C309.321 815.439 297.289 774.351 280.09 739.718C262.497 703.721 240.766 673.311 215.342 649.109C202.74 636.988 189.283 626.38 175.035 617.334C168.047 612.667 160.678 608.769 152.961 605.659C144.239 602.346 136.206 597.473 128.975 591.109C100.74 565.993 85.4363 521.776 68.4433 480.957C51.4502 440.138 31.1972 400.477 -3.16528 386.484C-24.8554 377.68 -53.7088 388.173 -80.3985 399.336C-116.818 414.641 -153.776 435.11 -190.728 460.444C-222.506 482.083 -256.548 507.54 -286.332 542.844C-296.567 554.991 -306.899 569.168 -313.899 585.354C-319.527 598.387 -308.722 603.229 -303.076 590.156C-302.379 588.584 -301.664 586.973 -300.966 585.401L-299.835 583.202C-299.835 583.202 -300.523 584.344 -299.495 582.436C-297.563 579.077 -295.547 575.802 -293.458 572.624C-288.742 565.774 -283.728 559.427 -278.505 553.696C-265.156 538.757 -251.325 525.484 -237.264 514.118C-202.16 485.306 -166.666 461.35 -131.418 442.678C-99.9711 425.522 -66.8405 409.886 -37.7385 404.905C-32.3758 403.959 -27.158 403.615 -22.1254 403.875C-21.03 403.975 -19.9562 404.065 -18.8964 404.246L-18.5718 404.39L-17.0575 404.773C-13.6638 405.941 -10.2437 407.458 -6.84532 408.966C8.61232 417.295 21.6932 430.399 31.8781 447.755C53.0278 481.834 65.6147 526.919 84.648 563.724C94.0825 583.006 105.935 599.012 119.917 611.35C133.82 622.872 150.76 627.784 165.698 637.21C193.278 654.784 217.759 678.363 238.683 707.503C259.587 736.029 276.337 770.626 288.524 810.452C300.301 848.223 306.131 892.192 305.763 940.461C305.095 1012.7 284.78 1094.96 248.587 1171.97C234.574 1201.34 219.032 1229.76 202.203 1256.77C197.961 1263.76 194.413 1271.64 190.442 1278.9C186.471 1286.15 182.398 1293.17 178.195 1300.13C169.918 1313.81 161.181 1326.94 152.058 1339.42C134.652 1363.27 115.777 1384.09 96.2246 1401.03C58.5414 1433.41 19.6087 1448.4 -10.3436 1435.73C-18.1829 1432.42 -25.2741 1427.46 -31.4804 1420.95C-38.9231 1413.26 -44.0967 1402.09 -51.7181 1394.8C-70.2233 1377.48 -90.0482 1362.51 -111.085 1349.99C-153.274 1324.33 -198.955 1306.18 -242.979 1284.48C-265.032 1273.63 -286.692 1261.9 -307.247 1247.9C-327.084 1233.79 -345.887 1217.71 -363.584 1199.71C-389.217 1174.97 -410.387 1141.47 -421.058 1096.27C-429.622 1059.13 -430.766 1015.16 -424.404 967.646C-418.227 920.035 -405.497 870.266 -390.028 821.038C-373.243 768.933 -354.381 717.022 -333.572 665.658C-323.55 640.443 -313.368 615.396 -303.076 590.156C-297.762 577.128 -308.531 572.205 -313.899 585.354Z" fill="#1DA1F2"/>
</g>
<g opacity="0.8" clip-path="url(#clip3_1_167)" filter="url(#filter3_f_1_167)">
<path d="M-134.774 550.685C-120.491 667.368 -103.514 793.134 55.6613 810.979C157.976 827.329 263.276 800.101 365.921 814.408C446.467 841.361 507.358 773.877 509.004 696.24C542.622 529.946 370.637 448.773 229.054 453.43C151.828 463.315 95.69 396.314 20.9201 404.522C-21.5975 408.599 -138.751 507.198 -134.774 550.685Z" fill="#6370F5"/>
<path d="M-139.802 551.015C-136.601 577.087 -133.33 603.295 -128.308 629.106C-123.389 654.256 -116.946 679.246 -106.738 702.817C-97.1303 725.785 -83.1613 746.669 -65.6049 764.312C-46.1847 783.257 -22.0531 796.719 3.73093 805.18C19.193 810.15 35.101 813.604 51.2305 815.495C61.4194 816.849 71.6188 818.365 81.9006 819.289C92.6303 820.265 103.397 820.875 114.166 821.221C156.911 822.467 199.568 818.988 242.215 816.884C263.335 815.805 284.514 815.026 305.62 815.282C316.315 815.411 326.985 815.784 337.642 816.583C347.65 817.323 358.532 817.54 368.198 820.486C397.489 829.445 429.189 826.441 455.284 810.016C480.389 794.221 497.648 768.408 506.753 740.54C509.153 733.164 510.969 725.61 512.183 717.947C512.802 714.039 513.266 710.12 513.575 706.192C513.698 702.334 514.026 698.487 514.558 694.665C517.496 679.465 518.739 663.986 518.264 648.511C517.327 621.047 509.813 594.208 496.356 570.253C483.086 547.363 465.345 527.382 444.191 511.502C422.051 494.778 397.579 481.395 371.557 471.78C344.728 461.72 316.813 454.841 288.384 451.286C274.246 449.475 260.017 448.462 245.765 448.253C238.689 448.059 231.607 448.26 224.553 448.853C216.656 449.603 208.704 449.575 200.812 448.769C169.895 445.516 141.758 431.669 113.595 419.563C85.4309 407.457 55.2061 396.578 23.7414 399.163C3.89096 400.806 -14.2594 411.758 -30.5069 422.464C-52.6507 437.102 -73.2857 453.906 -92.1075 472.629C-108.349 488.672 -124.902 506.757 -134.538 527.725C-137.844 534.936 -140.469 542.972 -139.802 551.015C-139.257 557.489 -129.198 556.851 -129.745 550.357C-129.796 549.572 -129.849 548.767 -129.9 547.982L-129.853 546.846C-129.853 546.846 -129.954 547.459 -129.878 546.464C-129.65 544.682 -129.328 542.913 -128.912 541.165C-127.855 537.348 -126.382 533.658 -124.521 530.163C-119.874 521.114 -114.238 512.609 -107.718 504.804C-91.6011 485.143 -73.3815 467.308 -53.3849 451.617C-35.7295 437.422 -16.2226 423.43 4.16721 414.595C7.9141 412.956 11.7739 411.589 15.7167 410.504C16.5912 410.285 17.4455 410.067 18.3227 409.888L18.6244 409.869L19.9239 409.662C22.9519 409.323 26.13 409.115 29.2879 408.908C44.1984 408.548 59.0674 410.635 73.3048 415.084C102.139 423.548 128.522 438.378 156.752 448.418C171.132 453.804 186.141 457.326 201.415 458.898C216.325 460.166 231.098 458.108 246.019 458.304C273.631 458.734 301.108 462.266 327.933 468.833C354.516 475.162 380.181 484.869 404.303 497.717C427.346 509.851 448.15 525.835 465.815 544.98C492.164 573.66 507.221 610.932 508.192 649.878C508.404 664.783 507.091 679.67 504.272 694.307C503.63 698.069 503.848 702.017 503.511 705.819C503.174 709.622 502.671 713.354 502.047 717.094C500.805 724.446 499.01 731.693 496.678 738.774C492.241 752.297 485.559 764.974 476.912 776.275C460.15 797.952 435.969 813.059 408.37 815.128C401.144 815.668 393.881 815.383 386.72 814.28C378.172 813 370.065 809.811 361.531 808.732C340.945 806.258 320.23 805.028 299.497 805.049C257.711 804.873 216.052 808.488 174.336 810.309C153.448 811.231 132.532 811.71 111.621 811.037C91.2124 810.147 70.8614 808.233 50.6444 805.304C21.858 801.588 -6.7796 793.354 -31.7404 778.026C-52.0922 765.385 -69.3168 748.293 -82.1195 728.033C-95.1007 707.777 -103.876 685.123 -110.356 662.036C-116.901 637.502 -121.786 612.555 -124.979 587.364C-126.695 575.043 -128.226 562.751 -129.745 550.357C-130.527 543.959 -140.588 544.557 -139.802 551.015Z" fill="#6370F5"/>
</g>
<defs>
<filter id="filter0_f_1_167" x="348.311" y="-539.689" width="1323.51" height="1188.79" filterUnits="userSpaceOnUse" color-interpolation-filters="sRGB">
<feFlood flood-opacity="0" result="BackgroundImageFix"/>
<feBlend mode="normal" in="SourceGraphic" in2="BackgroundImageFix" result="shape"/>
<feGaussianBlur stdDeviation="119.844" result="effect1_foregroundBlur_1_167"/>
</filter>
<filter id="filter1_f_1_167" x="935.633" y="-464.324" width="1229.51" height="1023.05" filterUnits="userSpaceOnUse" color-interpolation-filters="sRGB">
<feFlood flood-opacity="0" result="BackgroundImageFix"/>
<feBlend mode="normal" in="SourceGraphic" in2="BackgroundImageFix" result="shape"/>
<feGaussianBlur stdDeviation="119.844" result="effect1_foregroundBlur_1_167"/>
</filter>
<filter id="filter2_f_1_167" x="-752.879" y="139.121" width="1427.02" height="1538.71" filterUnits="userSpaceOnUse" color-interpolation-filters="sRGB">
<feFlood flood-opacity="0" result="BackgroundImageFix"/>
<feBlend mode="normal" in="SourceGraphic" in2="BackgroundImageFix" result="shape"/>
<feGaussianBlur stdDeviation="82.4395" result="effect1_foregroundBlur_1_167"/>
</filter>
<filter id="filter3_f_1_167" x="-345.131" y="171.869" width="1070.56" height="883.868" filterUnits="userSpaceOnUse" color-interpolation-filters="sRGB">
<feFlood flood-opacity="0" result="BackgroundImageFix"/>
<feBlend mode="normal" in="SourceGraphic" in2="BackgroundImageFix" result="shape"/>
<feGaussianBlur stdDeviation="98.0654" result="effect1_foregroundBlur_1_167"/>
</filter>
<clipPath id="clip0_1_167">
<rect width="719.161" height="497.766" fill="white" transform="translate(588 -59.7649) rotate(-19.5147)"/>
</clipPath>
<clipPath id="clip1_1_167">
<rect width="719.161" height="497.766" fill="white" transform="translate(1175.32 -177.67) rotate(-3.74436)"/>
</clipPath>
<clipPath id="clip2_1_167">
<rect width="763.975" height="983.637" fill="white" transform="translate(-189.061 304) rotate(23.9272)"/>
</clipPath>
<clipPath id="clip3_1_167">
<rect width="650.294" height="450.1" fill="white" transform="translate(-149 410.467) rotate(-3.74436)"/>
</clipPath>
</defs>
</svg>
