<svg width="143" height="185" viewBox="0 0 143 185" fill="none" xmlns="http://www.w3.org/2000/svg">
<circle cx="71.5" cy="71.5" r="71.5" fill="#f3ebfd"/>
<rect x="43.4505" y="70.0427" width="70" height="98" rx="7" transform="rotate(2.5 43.4505 70.0427)" fill="#e6d7fb" stroke="#c19cf6" stroke-width="2"/>
<rect x="1.83604" y="64.1806" width="74" height="102" rx="9" transform="rotate(-7.5 1.83604 64.1806)" fill="white" stroke="#c19cf6" stroke-width="2"/>
<path d="M4.00222 72.9731C3.42552 68.5926 6.50909 64.574 10.8896 63.9973L66.4105 56.6878C70.791 56.1111 74.8095 59.1947 75.3862 63.5752L77.3441 78.4468L5.96011 87.8447L4.00222 72.9731Z" fill="#e6d7fb"/>
<rect x="89.8662" y="58.6431" width="3" height="10" rx="1.5" transform="rotate(82.5 89.8662 58.6431)" fill="#c19cf6"/>
<rect x="62.4697" y="42.0774" width="3" height="10" rx="1.5" transform="rotate(-7.5 62.4697 42.0774)" fill="#c19cf6"/>
<rect x="80.0474" y="44.8064" width="3" height="10" rx="1.5" transform="rotate(37.5 80.0474 44.8064)" fill="#c19cf6"/>
<rect x="13.4224" y="90.897" width="58" height="4" rx="2" transform="rotate(-7.5 13.4224 90.897)" fill="#cdaff7"/>
<rect x="16.0327" y="110.726" width="58" height="4" rx="2" transform="rotate(-7.5 16.0327 110.726)" fill="#cdaff7"/>
<rect x="18.6431" y="130.555" width="58" height="4" rx="2" transform="rotate(-7.5 18.6431 130.555)" fill="#cdaff7"/>
<rect x="14.4663" y="98.8284" width="21" height="4" rx="2" transform="rotate(-7.5 14.4663 98.8284)" fill="#f3ebfd"/>
<rect x="17.0771" y="118.657" width="21" height="4" rx="2" transform="rotate(-7.5 17.0771 118.657)" fill="#f3ebfd"/>
<rect x="19.6875" y="138.486" width="21" height="4" rx="2" transform="rotate(-7.5 19.6875 138.486)" fill="#f3ebfd"/>
</svg>
