<svg width="50" height="56" viewBox="0 0 50 56" fill="none" xmlns="http://www.w3.org/2000/svg">
<path d="M26.8038 2.6334C28.8033 8.67142 31.1693 13.3826 34.4675 17.2213C37.7681 21.0627 41.9775 24.0017 47.6212 26.533C48.3 26.8375 48.6465 27.5377 48.6165 28.2783C48.5865 29.0188 48.1843 29.6892 47.4831 29.9382C41.8275 31.9463 37.5044 34.4977 34.1322 38.2197C30.7624 41.939 28.3756 46.7904 26.5289 53.3424C26.3106 54.117 25.5583 54.5683 24.7038 54.5846C23.8494 54.6009 23.0855 54.179 22.8432 53.4138C20.9653 47.4841 18.7199 42.8099 15.4799 39.0117C12.2367 35.2098 8.02362 32.3167 2.25809 29.9066C0.93274 29.3525 0.876233 27.3641 2.14818 26.7494C7.83522 24.0007 12.1562 21.0481 15.5301 17.2365C18.9053 13.4235 21.3071 8.77996 23.2 2.68724C23.4349 1.93117 24.1711 1.49901 24.9936 1.48709C25.8158 1.47516 26.556 1.88497 26.8038 2.6334Z" fill="#F8AD82"/>
<path d="M26.8038 2.6334C28.8033 8.67142 31.1693 13.3826 34.4675 17.2213C37.7681 21.0627 41.9775 24.0017 47.6212 26.533C48.3 26.8375 48.6465 27.5377 48.6165 28.2783C48.5865 29.0188 48.1843 29.6892 47.4831 29.9382C41.8275 31.9463 37.5044 34.4977 34.1322 38.2197C30.7624 41.939 28.3756 46.7904 26.5289 53.3424C26.3106 54.117 25.5583 54.5683 24.7038 54.5846C23.8494 54.6009 23.0855 54.179 22.8432 53.4138C20.9653 47.4841 18.7199 42.8099 15.4799 39.0117C12.2367 35.2098 8.02362 32.3167 2.25809 29.9066C0.93274 29.3525 0.876233 27.3641 2.14818 26.7494C7.83522 24.0007 12.1562 21.0481 15.5301 17.2365C18.9053 13.4235 21.3071 8.77996 23.2 2.68724C23.4349 1.93117 24.1711 1.49901 24.9936 1.48709C25.8158 1.47516 26.556 1.88497 26.8038 2.6334Z" stroke="white" stroke-opacity="0.07"/>
<path d="M26.8038 2.6334C28.8033 8.67142 31.1693 13.3826 34.4675 17.2213C37.7681 21.0627 41.9775 24.0017 47.6212 26.533C48.3 26.8375 48.6465 27.5377 48.6165 28.2783C48.5865 29.0188 48.1843 29.6892 47.4831 29.9382C41.8275 31.9463 37.5044 34.4977 34.1322 38.2197C30.7624 41.939 28.3756 46.7904 26.5289 53.3424C26.3106 54.117 25.5583 54.5683 24.7038 54.5846C23.8494 54.6009 23.0855 54.179 22.8432 53.4138C20.9653 47.4841 18.7199 42.8099 15.4799 39.0117C12.2367 35.2098 8.02362 32.3167 2.25809 29.9066C0.93274 29.3525 0.876233 27.3641 2.14818 26.7494C7.83522 24.0007 12.1562 21.0481 15.5301 17.2365C18.9053 13.4235 21.3071 8.77996 23.2 2.68724C23.4349 1.93117 24.1711 1.49901 24.9936 1.48709C25.8158 1.47516 26.556 1.88497 26.8038 2.6334Z" stroke="url(#paint0_linear_31_1073)" style="mix-blend-mode:overlay"/>
<defs>
<linearGradient id="paint0_linear_31_1073" x1="18.5531" y1="41.8595" x2="50.8702" y2="4.0471" gradientUnits="userSpaceOnUse">
<stop stop-color="white" stop-opacity="0"/>
<stop offset="1" stop-color="white"/>
</linearGradient>
</defs>
</svg>
