<svg width="64" height="64" viewBox="0 0 64 64" fill="none" xmlns="http://www.w3.org/2000/svg">
<path fill-rule="evenodd" clip-rule="evenodd" d="M58.607 14.2218C62.1232 19.4841 64 25.671 64 32H57.3123C57.3131 31.9205 57.3134 31.8409 57.3134 31.7612C57.3134 17.9129 46.0872 6.68658 32.2388 6.68658C18.3905 6.68658 7.16419 17.9129 7.16419 31.7612C7.16419 45.5299 18.2617 56.7065 32 56.8347V64C25.671 64 19.4841 62.1232 14.2218 58.607C8.95939 55.0908 4.85787 50.0931 2.43587 44.2459C0.0138652 38.3987 -0.619842 31.9645 0.614885 25.7571C1.84961 19.5497 4.89732 13.8479 9.3726 9.3726C13.8479 4.89732 19.5497 1.84961 25.7571 0.614886C31.9645 -0.619842 38.3987 0.0138651 44.2459 2.43587C50.0931 4.85787 55.0908 8.95939 58.607 14.2218Z" fill="url(#paint0_linear_2281_15943)"/>
<defs>
<linearGradient id="paint0_linear_2281_15943" x1="68.0597" y1="17.194" x2="47.2836" y2="75.2239" gradientUnits="userSpaceOnUse">
<stop offset="0.00254648" stop-color="#1a91da"/>
<stop offset="1" stop-color="#e8f6fe" stop-opacity="0"/>
</linearGradient>
</defs>
</svg>
