<svg viewBox="0 0 128 128" xmlns="http://www.w3.org/2000/svg"><path d="M25.3 29.172c.334.441 7.023 9.187 14.864 19.437 7.841 10.249 14.228 18.715 14.193 18.813-.035.098-6.391 7.408-14.124 16.245l-14.06 16.066 5.844.057c3.214.031 5.96.012 6.102-.042.142-.054 5.114-5.648 11.05-12.43 5.935-6.782 10.876-12.331 10.979-12.331.102 0 4.445 5.568 9.65 12.373l9.463 12.373 12.103.055c7.627.035 12.103-.02 12.103-.149 0-.113-6.736-9.114-14.969-20.002A99830.924 99830.924 0 0 1 73.03 59.178l-.499-.661 13.002-14.859c7.152-8.173 13.062-14.955 13.134-15.072.086-.139-1.949-.209-5.908-.203l-6.039.009-9.884 11.315c-5.437 6.224-9.949 11.255-10.027 11.181-.078-.075-3.939-5.147-8.579-11.272L49.793 28.48l-12.55-.055-12.55-.055.607.802m42.214 34.451c11.824 15.633 21.544 28.545 21.601 28.693.081.211-.603.271-3.11.271h-3.213l-1.153-1.44c-.634-.792-10.395-13.536-21.691-28.32S39.264 35.779 39.085 35.573c-.307-.353-.133-.373 3.304-.373h3.628l21.497 28.423" fill="#fcf6f1" fill-rule="evenodd"/></svg>